name analog
datacolumns 19
datarows 55
range 0.0 0.027
endheader
time	ground_force_vx	ground_force_vy	ground_force_vz	ground_force_px	ground_force_py	ground_force_pz	l_ground_force_vx	l_ground_force_vy	l_ground_force_vz	l_ground_force_px	l_ground_force_py	l_ground_force_pz	ground_torque_x	ground_torque_y	ground_torque_z	l_ground_torque_x	l_ground_torque_y	l_ground_torque_z
0.0	-0.0	-0.0	-0.0	-13.60869312286377	26.445457458496094	-340.97906494140625	12.562596321105955	-33.630611419677734	-442.5328674316406	-0.0	-0.0	-0.0	-0.0	-0.0	-0.0	125164.3203125	-20538.376953125	4461.4794921875
0.0005	-0.0	-0.0	-0.0	-13.381576538085938	26.93769645690918	-341.7418518066406	12.159311294555664	-33.85314178466797	-442.2167663574219	-0.0	-0.0	-0.0	-0.0	-0.0	-0.0	125018.8359375	-20618.806640625	4467.85009765625
0.001	-0.0	-0.0	-0.0	-12.98391819000244	26.389009475708008	-341.9635925292969	12.43970012664795	-33.64447021484375	-442.1848754882813	-0.0	-0.0	-0.0	-0.0	-0.0	-0.0	124885.734375	-20419.4453125	4367.66650390625
0.0015	-0.0	-0.0	-0.0	-13.37502384185791	26.72522354125977	-342.856689453125	12.058409690856934	-33.79312515258789	-441.0581665039063	-0.0	-0.0	-0.0	-0.0	-0.0	-0.0	124908.1875	-20534.67578125	4438.1513671875
0.002	-0.0	-0.0	-0.0	-13.649208068847656	26.389333724975582	-342.9110412597656	11.92144012451172	-33.65056610107422	-440.2255859375	-0.0	-0.0	-0.0	-0.0	-0.0	-0.0	124610.1875	-20555.76171875	4342.3154296875
0.0025	-0.0	-0.0	-0.0	-12.914910316467283	26.72544860839844	-343.6166687011719	12.187535285949709	-33.25666809082031	-439.5016174316406	-0.0	-0.0	-0.0	-0.0	-0.0	-0.0	124323.859375	-20339.990234375	4344.81005859375
0.003	-0.0	-0.0	-0.0	-13.011122703552246	26.39619827270508	-344.1329650878906	11.798534393310549	-33.47392272949219	-439.313232421875	-0.0	-0.0	-0.0	-0.0	-0.0	-0.0	124401.7734375	-20330.140625	4319.4248046875
0.0035	-0.0	-0.0	-0.0	-12.99675750732422	26.773326873779297	-343.701416015625	11.757497787475586	-33.507869720458984	-439.0451049804688	-0.0	-0.0	-0.0	-0.0	-0.0	-0.0	124042.859375	-20314.494140625	4374.18701171875
0.004	-0.0	-0.0	-0.0	-13.05893325805664	26.73912048339844	-346.0869445800781	12.215157508850098	-33.406105041503906	-438.4253234863281	-0.0	-0.0	-0.0	-0.0	-0.0	-0.0	124123.359375	-20343.216796875	4365.31884765625
0.0045000000000000005	-0.0	-0.0	-0.0	-12.922221183776855	26.80740165710449	-345.8684997558594	11.962573051452637	-33.603355407714844	-437.9986572265625	-0.0	-0.0	-0.0	-0.0	-0.0	-0.0	124276.0390625	-20446.58984375	4241.93017578125
0.005	-0.0	-0.0	-0.0	-12.882765769958496	26.95148468017578	-347.1759033203125	11.785264015197754	-33.310489654541016	-439.0696105957031	-0.0	-0.0	-0.0	-0.0	-0.0	-0.0	124153.890625	-20290.259765625	4285.40185546875
0.0055	-0.0	-0.0	-0.0	-12.68891143798828	27.014448165893555	-346.7709350585937	11.928841590881348	-33.24276351928711	-438.0516357421875	-0.0	-0.0	-0.0	-0.0	-0.0	-0.0	124114.3671875	-20586.955078125	4216.73388671875
0.006	-0.0	-0.0	-0.0	-12.91444969177246	27.337068557739254	-349.29498291015625	11.696747779846191	-33.154415130615234	-438.4829711914063	-0.0	-0.0	-0.0	-0.0	-0.0	-0.0	123987.5625	-20474.708984375	4302.955078125
0.006500000000000001	-0.0	-0.0	-0.0	-12.119749069213867	27.528425216674805	-348.5558776855469	11.579257011413574	-33.25062561035156	-438.1539306640625	-0.0	-0.0	-0.0	-0.0	-0.0	-0.0	123810.203125	-20642.08203125	4155.41796875
0.007	-0.0	-0.0	-0.0	-12.234607696533203	27.273902893066406	-350.5731201171875	11.456542015075684	-32.868465423583984	-437.18841552734375	-0.0	-0.0	-0.0	-0.0	-0.0	-0.0	124162.8828125	-20407.947265625	4148.4677734375
0.0075	-0.0	-0.0	-0.0	-12.421553611755373	27.19742774963379	-351.06085205078125	10.95799732208252	-32.78832244873047	-438.1023559570313	-0.0	-0.0	-0.0	-0.0	-0.0	-0.0	124206.0234375	-20573.826171875	4088.839111328125
0.008	-0.0	-0.0	-0.0	-12.285906791687012	27.439603805541992	-351.2797241210937	11.143770217895508	-33.05335235595703	-437.4869995117188	-0.0	-0.0	-0.0	-0.0	-0.0	-0.0	124138.5390625	-20527.6953125	4066.337646484375
0.0085	-0.0	-0.0	-0.0	-12.748130798339844	27.18477249145508	-352.3887634277344	11.165014266967772	-32.59070587158203	-436.8227844238281	-0.0	-0.0	-0.0	-0.0	-0.0	-0.0	124068.703125	-20402.09375	3981.7353515625
0.009000000000000001	-0.0	-0.0	-0.0	-12.501816749572754	27.516624450683597	-353.0821838378906	10.966423034667969	-32.46881484985352	-438.4855041503906	-0.0	-0.0	-0.0	-0.0	-0.0	-0.0	123965.65625	-20573.26171875	4015.470947265625
0.0095	-0.0	-0.0	-0.0	-12.36940097808838	27.56283569335937	-353.41094970703125	11.000137329101562	-32.68797302246094	-436.4881286621094	-0.0	-0.0	-0.0	-0.0	-0.0	-0.0	123944.65625	-20461.45703125	4015.430419921875
0.01	-0.0	-0.0	-0.0	-12.344837188720703	27.54129409790039	-353.87579345703125	10.746241569519045	-32.56938552856445	-436.5719604492188	-0.0	-0.0	-0.0	-0.0	-0.0	-0.0	123724.140625	-20339.1953125	3988.671630859375
0.0105	-0.0	-0.0	-0.0	-11.97592067718506	27.242542266845703	-355.29901123046875	10.602319717407228	-32.49306106567383	-436.9578247070313	-0.0	-0.0	-0.0	-0.0	-0.0	-0.0	123893.1484375	-20296.78515625	3918.99462890625
0.011	-0.0	-0.0	-0.0	-12.42202854156494	27.307594299316406	-354.11444091796875	10.657336235046388	-32.50238037109375	-436.1003723144531	-0.0	-0.0	-0.0	-0.0	-0.0	-0.0	123661.0	-20292.201171875	3896.54345703125
0.0115	-0.0	-0.0	-0.0	-12.388420104980469	27.497648239135746	-354.85211181640625	10.865949630737305	-32.55730438232422	-434.2595520019531	-0.0	-0.0	-0.0	-0.0	-0.0	-0.0	123457.53125	-20381.90625	3903.893798828125
0.012	-0.0	-0.0	-0.0	-12.110711097717283	27.70783805847168	-353.75311279296875	10.314085960388184	-32.46902084350586	-435.1283264160156	-0.0	-0.0	-0.0	-0.0	-0.0	-0.0	123437.0390625	-20224.955078125	3910.7900390625
0.0125	-0.0	-0.0	-0.0	-12.432538986206056	27.396625518798828	-354.9866638183594	10.477867126464844	-32.7340087890625	-434.3839416503906	-0.0	-0.0	-0.0	-0.0	-0.0	-0.0	123499.609375	-20201.81640625	3818.52880859375
0.013000000000000001	-0.0	-0.0	-0.0	-12.344635009765623	27.47418594360352	-354.239501953125	10.76745319366455	-32.67902374267578	-433.90960693359375	-0.0	-0.0	-0.0	-0.0	-0.0	-0.0	123000.59375	-20135.3046875	3933.489990234375
0.0135	-0.0	-0.0	-0.0	-12.512330055236816	27.196191787719727	-352.9172668457031	10.611884117126465	-32.30394744873047	-433.2971801757813	-0.0	-0.0	-0.0	-0.0	-0.0	-0.0	123004.421875	-20325.234375	3922.315185546875
0.014	-0.0	-0.0	-0.0	-12.244012832641602	27.452163696289062	-354.4170837402344	10.811277389526367	-32.40359878540039	-433.6012878417969	-0.0	-0.0	-0.0	-0.0	-0.0	-0.0	123043.578125	-20219.66015625	3966.7900390625
0.0145	-0.0	-0.0	-0.0	-12.244306564331056	27.340585708618164	-353.8418273925781	10.77867603302002	-32.469181060791016	-431.9451293945313	-0.0	-0.0	-0.0	-0.0	-0.0	-0.0	122947.25	-20316.310546875	3911.28466796875
0.015	-0.0	-0.0	-0.0	-12.634449005126951	26.99540138244629	-355.2550048828125	10.711910247802734	-32.81167221069336	-432.2068786621094	-0.0	-0.0	-0.0	-0.0	-0.0	-0.0	122801.0859375	-20247.033203125	3777.755126953125
0.0155	-0.0	-0.0	-0.0	-12.400260925292969	27.69718360900879	-355.0331115722656	10.412436485290527	-32.778411865234375	-432.6860656738281	-0.0	-0.0	-0.0	-0.0	-0.0	-0.0	122948.1640625	-20081.8203125	3814.614013671875
0.016	-0.0	-0.0	-0.0	-12.277067184448242	27.26238441467285	-355.0755920410156	10.745023727416992	-32.436004638671875	-432.1181335449219	-0.0	-0.0	-0.0	-0.0	-0.0	-0.0	122788.453125	-20165.341796875	3866.844482421875
0.0165	-0.0	-0.0	-0.0	-12.23355770111084	27.296411514282227	-355.8305969238281	10.622994422912598	-32.72294616699219	-432.1190185546875	-0.0	-0.0	-0.0	-0.0	-0.0	-0.0	122969.4609375	-20244.8359375	3770.223388671875
0.017	-0.0	-0.0	-0.0	-12.110024452209473	27.30717658996582	-355.0353088378906	10.545001983642578	-32.56842422485352	-431.9461364746094	-0.0	-0.0	-0.0	-0.0	-0.0	-0.0	122804.109375	-20205.69140625	3807.3154296875
0.0175	-0.0	-0.0	-0.0	-12.421491622924805	27.441558837890625	-354.5506591796875	10.734004974365234	-32.84500503540039	-431.85443115234375	-0.0	-0.0	-0.0	-0.0	-0.0	-0.0	122629.296875	-20202.326171875	3852.034912109375
0.018000000000000002	-0.0	-0.0	-0.0	-11.997947692871094	27.36303329467773	-354.9042663574219	10.577780723571776	-32.722537994384766	-431.90570068359375	-0.0	-0.0	-0.0	-0.0	-0.0	-0.0	122771.3125	-20065.06640625	3811.259033203125
0.0185	-0.0	-0.0	-0.0	-11.987408638000488	27.27593421936035	-355.38934326171875	10.845294952392578	-32.459022521972656	-431.8116760253906	-0.0	-0.0	-0.0	-0.0	-0.0	-0.0	122509.4375	-20385.45703125	3881.951416015625
0.019	-0.0	-0.0	-0.0	-11.864997863769531	27.1287841796875	-354.6831970214844	10.556583404541016	-32.47985076904297	-431.6405029296875	-0.0	-0.0	-0.0	-0.0	-0.0	-0.0	122559.7109375	-20153.951171875	3755.54345703125
0.0195	-0.0	-0.0	-0.0	-12.03067111968994	27.164403915405277	-355.69256591796875	10.389452934265137	-32.80020523071289	-431.0723876953125	-0.0	-0.0	-0.0	-0.0	-0.0	-0.0	122418.859375	-20128.173828125	3803.648681640625
0.02	-0.0	-0.0	-0.0	-12.102388381958008	27.23076438903809	-355.7832336425781	10.756789207458496	-32.29291915893555	-431.2022705078125	-0.0	-0.0	-0.0	-0.0	-0.0	-0.0	122473.703125	-20194.439453125	3718.4755859375
0.0205	-0.0	-0.0	-0.0	-11.808859825134276	27.37607955932617	-354.99755859375	10.579415321350098	-33.05504608154297	-432.4191589355469	-0.0	-0.0	-0.0	-0.0	-0.0	-0.0	122673.1953125	-20160.76953125	3796.125244140625
0.021	-0.0	-0.0	-0.0	-11.709716796875	27.254131317138672	-356.1361694335937	10.34626007080078	-32.656219482421875	-430.2449645996094	-0.0	-0.0	-0.0	-0.0	-0.0	-0.0	122923.1328125	-20217.46484375	3758.736572265625
0.021500000000000002	-0.0	-0.0	-0.0	-11.564369201660156	26.969894409179688	-354.44757080078125	10.257586479187012	-32.95383071899414	-431.4220581054688	-0.0	-0.0	-0.0	-0.0	-0.0	-0.0	122551.6796875	-19972.24609375	3806.911376953125
0.022	-0.0	-0.0	-0.0	-11.930937767028809	27.006511688232425	-354.2241516113281	10.392398834228516	-32.9864387512207	-433.20648193359375	-0.0	-0.0	-0.0	-0.0	-0.0	-0.0	122703.8671875	-20287.525390625	3763.068603515625
0.0225	-0.0	-0.0	-0.0	-11.667405128479004	27.0860652923584	-354.9837951660156	10.303875923156738	-33.32028579711914	-432.9098815917969	-0.0	-0.0	-0.0	-0.0	-0.0	-0.0	122947.328125	-20109.2734375	3706.86962890625
0.023	-0.0	-0.0	-0.0	-11.367105484008787	27.20370101928711	-354.7781066894531	10.070693016052246	-33.241573333740234	-432.7654724121094	-0.0	-0.0	-0.0	-0.0	-0.0	-0.0	122891.28125	-20391.556640625	3744.141357421875
0.0235	-0.0	-0.0	-0.0	-11.4189453125	26.84697532653809	-355.1318359375	9.87962532043457	-33.427616119384766	-432.1208801269531	-0.0	-0.0	-0.0	-0.0	-0.0	-0.0	123074.796875	-20154.34765625	3714.31689453125
0.024	-0.0	-0.0	-0.0	-11.386116027832031	27.18477249145508	-354.33270263671875	9.958925247192385	-33.39493942260742	-432.6906127929688	-0.0	-0.0	-0.0	-0.0	-0.0	-0.0	122666.9375	-20455.9296875	3684.73828125
0.0245	-0.0	-0.0	-0.0	-11.719367980957031	27.12840461730957	-354.852294921875	9.823505401611328	-33.762176513671875	-433.7939758300781	-0.0	-0.0	-0.0	-0.0	-0.0	-0.0	122986.8125	-20242.603515625	3603.40380859375
0.025	-0.0	-0.0	-0.0	-11.597366333007812	27.14300537109375	-354.49884033203125	10.299606323242188	-33.4180793762207	-433.2047729492188	-0.0	-0.0	-0.0	-0.0	-0.0	-0.0	122804.2421875	-20363.400390625	3680.2392578125
0.025500000000000002	-0.0	-0.0	-0.0	-11.76099681854248	27.49963760375977	-355.0398864746094	10.178218841552734	-33.529788970947266	-432.1214294433594	-0.0	-0.0	-0.0	-0.0	-0.0	-0.0	122719.453125	-20269.4296875	3763.021240234375
0.026000000000000002	-0.0	-0.0	-0.0	-11.029415130615234	26.958887100219727	-354.7813720703125	10.257893562316896	-33.39125061035156	-431.80767822265625	-0.0	-0.0	-0.0	-0.0	-0.0	-0.0	122513.6640625	-20240.033203125	3889.697509765625
0.0265	-0.0	-0.0	-0.0	-11.103495597839355	27.128263473510746	-355.5830078125	10.52406406402588	-33.459163665771484	-430.9114379882813	-0.0	-0.0	-0.0	-0.0	-0.0	-0.0	122721.5546875	-20302.984375	3866.185546875
0.027	-0.0	-0.0	-0.0	-11.0294771194458	27.458776473999023	-356.2294006347656	10.379161834716797	-33.52115249633789	-430.9221801757813	-0.0	-0.0	-0.0	-0.0	-0.0	-0.0	122731.5546875	-20132.478515625	3861.0615234375
